<?xml version="1.0" standalone="no"?>

<svg version="1.0" xmlns="http://www.w3.org/2000/svg"
 width="394.000000pt" height="390.000000pt" viewBox="0 0 394.000000 390.000000"
 preserveAspectRatio="xMidYMid meet">

<g transform="translate(0.000000,390.000000) scale(0.100000,-0.100000)"
fill="none" stroke="none">
<path fill="#000" d="M1962 3555 c-89 -21 -247 -105 -320 -170 -73 -67 -147 -175 -179
-263 -13 -35 -31 -112 -39 -170 -18 -120 -14 -207 15 -317 10 -38 26 -100 36
-137 17 -67 17 -67 -5 -103 -20 -33 -22 -46 -18 -125 5 -76 11 -101 42 -166
20 -42 49 -91 65 -109 16 -18 39 -64 51 -102 13 -37 32 -86 42 -107 17 -32 19
-50 13 -103 -7 -70 -21 -83 -88 -83 -42 0 -154 -29 -199 -51 -20 -10 -46 -32
-58 -49 -12 -16 -27 -30 -33 -30 -7 0 -46 14 -86 31 -117 49 -159 33 -221 -82
-17 -33 -50 -81 -72 -106 -23 -26 -47 -62 -54 -80 -18 -43 -18 -110 1 -163 8
-23 15 -60 15 -81 0 -37 -3 -40 -112 -122 -62 -46 -133 -97 -158 -114 -66 -45
-101 -87 -160 -191 -83 -145 -152 -342 -184 -524 l-7 -38 1841 0 c1012 0 1840
2 1840 5 0 15 -53 209 -69 250 -10 28 -22 75 -26 105 -8 64 -51 146 -124 240
-28 36 -69 89 -91 117 -22 29 -54 60 -71 68 -16 9 -53 34 -82 55 -29 22 -82
56 -119 75 -63 34 -95 64 -81 78 3 3 2 26 -1 50 -8 53 -87 177 -185 291 -38
45 -89 106 -113 136 -42 54 -68 70 -228 144 -22 11 -25 18 -25 62 1 30 13 79
32 129 37 93 69 230 78 333 6 56 11 75 26 82 25 14 59 127 66 221 5 62 2 83
-15 122 -21 47 -26 50 -73 47 l-26 -1 -6 133 c-5 133 -30 255 -71 352 -24 57
-119 197 -176 259 -134 147 -411 242 -588 202z"/>
</g>
</svg>
